<?xml version="1.0" encoding="utf-8"?>
<!-- Generator: Adobe Illustrator 27.6.1, SVG Export Plug-In . SVG Version: 6.00 Build 0)  -->
<svg version="1.1" data-id="Layer_1" xmlns="http://www.w3.org/2000/svg" xmlns:xlink="http://www.w3.org/1999/xlink" x="0px" y="0px"
	 viewBox="0 0 211 211" style="enable-background:new 0 0 211 211;" xml:space="preserve">
<style type="text/css">
	.st0 { fill: rgb(59, 180, 135); }
</style>
<path class="st0" d="M105.5,211C47.2,211,0,163.8,0,105.5S47.2,0,105.5,0S211,47.2,211,105.5S163.8,211,105.5,211z M158,54.2
	c0-0.1,0-0.2,0-0.2c0-0.1,0-0.2-0.1-0.4c0-0.1-0.1-0.3-0.1-0.4c0-0.1,0-0.1-0.1-0.2c-0.1-0.2-0.2-0.4-0.3-0.5c0,0,0,0,0,0
	c0,0-0.1-0.1-0.1-0.1c-0.1-0.1-0.2-0.3-0.3-0.4c-0.1-0.1-0.2-0.2-0.3-0.2c-0.1-0.1-0.1-0.1-0.2-0.2c0,0,0,0,0,0
	c-0.2-0.1-0.3-0.2-0.5-0.3c0,0-0.1,0-0.2-0.1c-0.1-0.1-0.3-0.1-0.4-0.2c-0.1,0-0.2,0-0.4-0.1c-0.1,0-0.2,0-0.2,0c-0.2,0-0.3,0-0.5,0
	c-0.1,0-0.1,0-0.2,0c-0.4,0-0.8,0.1-1.2,0.3c0,0,0,0,0,0l-109,51c-1.2,0.6-2,1.8-2,3.1c0,1.3,0.7,2.6,1.9,3.2l37.6,18.8l18.8,37.6
	c0.6,1.2,1.8,1.9,3.1,1.9c0,0,0,0,0,0c1.3,0,2.6-0.8,3.1-2l51-109c0,0,0,0,0,0c0.1-0.2,0.2-0.4,0.2-0.6c0,0,0,0,0,0
	c0-0.2,0.1-0.4,0.1-0.6c0-0.1,0-0.2,0-0.3C158,54.4,158,54.3,158,54.2z M127,77l-43.5,43.5l-29.9-15l84.3-39.4L127,77z M99.3,114.6
	l43.5-43.5l-39.4,84.3l-15-29.9L99.3,114.6z"/>
</svg>
